<svg width="852" height="852" viewBox="0 0 852 852" fill="none" xmlns="http://www.w3.org/2000/svg">
<g clip-path="url(#clip0_237_193946)">
<path d="M237.531 715.287H328.34V530.348C349.381 562.186 384.818 576.306 421.917 576.306C512.449 576.306 567.543 514.29 567.543 425.419C567.543 336.549 512.449 274.533 421.917 274.533C384.818 274.533 349.381 288.653 328.34 320.491V282.839H237.531V715.287ZM402.537 344.301C450.987 344.301 476.734 379.461 476.734 425.419C476.734 471.377 450.987 506.538 402.537 506.538C354.087 506.538 328.34 471.377 328.34 425.419C328.34 379.461 354.087 344.301 402.537 344.301Z" fill="#FEFEFE"/>
<rect x="621.136" y="280.099" width="107.024" height="107.024" rx="53.512" fill="#FEFEFE"/>
<path d="M540.391 176.001L629.391 208.394L596.997 297.394L507.998 265.001L540.391 176.001Z" fill="#FEFEFE"/>
</g>
<defs>
<clipPath id="clip0_237_193946">
<rect width="852" height="852" rx="426" fill="white"/>
</clipPath>
</defs>
</svg>
