<svg width="755" height="755" viewBox="0 0 755 755" fill="none" xmlns="http://www.w3.org/2000/svg">
<g clip-path="url(#clip0_237_193948)">
<rect width="755" height="755" fill="white"/>
<rect x="569.136" y="181.099" width="107.024" height="107.024" rx="53.512" fill="black"/>
<path d="M488.391 77.001L577.391 109.394L544.997 198.394L455.998 166.001L488.391 77.001Z" fill="black"/>
<path d="M185.531 619.287H276.34V434.348C297.381 466.186 332.818 480.306 369.917 480.306C460.449 480.306 515.543 418.29 515.543 329.419C515.543 240.549 460.449 178.533 369.917 178.533C332.818 178.533 297.381 192.653 276.34 224.491V186.839H185.531V619.287ZM350.537 248.301C398.987 248.301 424.734 283.461 424.734 329.419C424.734 375.377 398.987 410.538 350.537 410.538C302.087 410.538 276.34 375.377 276.34 329.419C276.34 283.461 302.087 248.301 350.537 248.301Z" fill="black"/>
</g>
<defs>
<clipPath id="clip0_237_193948">
<rect width="755" height="755" fill="white"/>
</clipPath>
</defs>
</svg>
