<svg width="144" height="33" viewBox="0 0 144 33" fill="none" xmlns="http://www.w3.org/2000/svg">
<path d="M0 32.7725H5.2412V22.0831C6.45562 23.9233 8.50097 24.7394 10.6422 24.7394C15.8674 24.7394 19.0473 21.1549 19.0473 16.0182C19.0473 10.8815 15.8674 7.29701 10.6422 7.29701C8.50097 7.29701 6.45562 8.11312 5.2412 9.95338V7.77708H0V32.7725ZM9.52364 11.3296C12.32 11.3296 13.8061 13.3619 13.8061 16.0182C13.8061 18.6746 12.32 20.7069 9.52364 20.7069C6.72727 20.7069 5.2412 18.6746 5.2412 16.0182C5.2412 13.3619 6.72727 11.3296 9.52364 11.3296Z" fill="#141414"/>
<path d="M21.9236 18.0185C21.9236 21.859 23.0261 24.2594 27.3725 24.2594H29.0663V20.2268H28.4431C27.0529 20.2268 27.1648 18.5146 27.1648 17.5384V0H21.9236V18.0185Z" fill="#141414"/>
<path d="M31.3194 16.0182C31.3194 21.1549 34.4992 24.7394 39.7245 24.7394C41.8657 24.7394 43.911 23.9233 45.1255 22.0831V24.2594H50.3667V7.77708H45.1255V9.95338C43.911 8.11312 41.8657 7.29701 39.7245 7.29701C34.4992 7.29701 31.3194 10.8815 31.3194 16.0182ZM40.843 11.3296C43.6394 11.3296 45.1255 13.3619 45.1255 16.0182C45.1255 18.6746 43.6394 20.7069 40.843 20.7069C38.0466 20.7069 36.5606 18.6746 36.5606 16.0182C36.5606 13.3619 38.0466 11.3296 40.843 11.3296Z" fill="#141414"/>
<path d="M59.4908 24.2594L58.3243 26.9157C57.9408 27.7959 57.3975 28.74 56.3109 28.74C55.7037 28.74 55.0965 28.612 54.5213 28.4039L52.9074 31.9724C53.978 32.5325 55.48 32.7725 56.6944 32.7725C59.6187 32.7725 61.1207 31.4764 62.2233 28.884L71.2356 7.77708H65.7707L61.8398 18.5306L57.9089 7.77708H52.444L59.4908 24.2594Z" fill="#141414"/>
<path d="M71.8747 16.0182C71.8747 21.1549 75.0546 24.7394 80.2798 24.7394C82.4211 24.7394 84.4664 23.9233 85.6808 22.0831V24.2594H90.922V0H85.6808V9.95338C84.4664 8.11312 82.4211 7.29701 80.2798 7.29701C75.0546 7.29701 71.8747 10.8815 71.8747 16.0182ZM81.3984 11.3296C84.1948 11.3296 85.6808 13.3619 85.6808 16.0182C85.6808 18.6746 84.1948 20.7069 81.3984 20.7069C78.602 20.7069 77.116 18.6746 77.116 16.0182C77.116 13.3619 78.602 11.3296 81.3984 11.3296Z" fill="#141414"/>
<path d="M101.996 24.7394C103.833 24.7394 105.351 24.0833 106.39 22.5151V24.2594H111.631V7.77708H106.39V16.3223C106.39 18.7066 105.799 20.7069 103.034 20.7069C100.27 20.7069 99.6787 18.7066 99.6787 16.3223V7.77708H94.4375V16.3223C94.4375 21.491 96.4988 24.7394 101.996 24.7394Z" fill="#141414"/>
<path d="M114.188 22.5791C116.345 24.3234 119.429 24.7394 122.13 24.7394C125.501 24.7394 129.911 23.7153 129.911 19.5227C129.911 15.4901 125.933 14.546 122.721 13.9059C122.002 13.7619 120.116 13.5059 120.116 12.4817C120.116 11.4736 121.379 11.3296 122.13 11.3296C123.759 11.3296 125.629 11.7136 127.115 12.3857L129.097 9.00925C127.003 7.76108 124.542 7.29701 122.13 7.29701C118.742 7.29701 114.875 8.41717 114.875 12.4817C114.875 16.1942 118.902 17.3464 121.858 17.9385C122.737 18.1145 124.67 18.2745 124.67 19.5227C124.67 20.7069 122.944 20.7069 122.13 20.7069C120.1 20.7069 117.943 20.2108 116.169 19.2027L114.188 22.5791Z" fill="#141414"/>
<path d="M132.114 13.2325V17.4104C132.114 22.4351 133.824 24.7394 139.049 24.7394C140.215 24.7394 141.685 24.4834 142.772 24.0513L141.653 20.3068C140.902 20.5468 140.167 20.7069 139.368 20.7069C137.467 20.7069 137.355 18.8666 137.355 17.4104V13.2325H132.114Z" fill="#141414"/>
<rect x="137.789" y="7.49316" width="6.21141" height="6.21138" rx="3.10569" fill="#141414"/>
<path d="M133.102 1.45117L138.268 3.33119L136.387 8.4965L131.222 6.61648L133.102 1.45117Z" fill="#141414"/>
</svg>
